<svg width="40" height="40" viewBox="0 0 40 40" fill="none" xmlns="http://www.w3.org/2000/svg">
<path d="M32.5 4.99989H31.25V3.78504C31.25 3.11239 30.7328 2.53504 30.0602 2.50145C29.8911 2.49331 29.7222 2.51956 29.5637 2.57862C29.4051 2.63769 29.2602 2.72833 29.1377 2.84506C29.0152 2.96179 28.9177 3.10217 28.851 3.2577C28.7844 3.41323 28.75 3.58068 28.75 3.74989V4.99989H11.25V3.78504C11.25 3.11239 10.7328 2.53504 10.0602 2.50145C9.89114 2.49331 9.72224 2.51956 9.56367 2.57862C9.40511 2.63769 9.26019 2.72833 9.13769 2.84506C9.01519 2.96179 8.91767 3.10217 8.85103 3.2577C8.78438 3.41323 8.75002 3.58068 8.75 3.74989V4.99989H7.5C6.17392 4.99989 4.90215 5.52667 3.96447 6.46435C3.02678 7.40203 2.5 8.6738 2.5 9.99989V10.9374C2.5 11.0203 2.53292 11.0998 2.59153 11.1584C2.65013 11.217 2.72962 11.2499 2.8125 11.2499H37.1875C37.2704 11.2499 37.3499 11.217 37.4085 11.1584C37.4671 11.0998 37.5 11.0203 37.5 10.9374V9.99989C37.5 8.6738 36.9732 7.40203 36.0355 6.46435C35.0979 5.52667 33.8261 4.99989 32.5 4.99989ZM37.1875 13.7499H2.8125C2.72962 13.7499 2.65013 13.7828 2.59153 13.8414C2.53292 13.9 2.5 13.9795 2.5 14.0624V32.4999C2.5 33.826 3.02678 35.0977 3.96447 36.0354C4.90215 36.9731 6.17392 37.4999 7.5 37.4999H32.5C33.8261 37.4999 35.0979 36.9731 36.0355 36.0354C36.9732 35.0977 37.5 33.826 37.5 32.4999V14.0624C37.5 13.9795 37.4671 13.9 37.4085 13.8414C37.3499 13.7828 37.2704 13.7499 37.1875 13.7499ZM18.7172 31.3358C17.7664 32.0866 16.4711 32.4999 15.0688 32.4999C12.8914 32.4999 11.2812 31.0811 10.5641 29.8671C10.3952 29.5816 10.3467 29.2406 10.4292 28.9193C10.5116 28.598 10.7184 28.3227 11.0039 28.1538C11.2894 27.9849 11.6303 27.9364 11.9516 28.0189C12.2729 28.1014 12.5483 28.3081 12.7172 28.5936C12.8016 28.7374 13.5883 29.9999 15.0688 29.9999C16.3703 29.9999 17.8906 29.4304 17.8906 27.8264C17.8906 27.3382 17.7953 26.6585 17.3438 26.1952C16.6766 25.5124 15.5664 25.2054 14.9914 25.2054C14.6599 25.2054 14.3419 25.0737 14.1075 24.8392C13.8731 24.6048 13.7414 24.2869 13.7414 23.9554C13.7414 23.6238 13.8731 23.3059 14.1075 23.0715C14.3419 22.837 14.6599 22.7054 14.9914 22.7054C15.3703 22.7054 16.3516 22.5022 16.9664 21.8733C17.1327 21.7097 17.264 21.514 17.3523 21.298C17.4405 21.082 17.4839 20.8503 17.4797 20.6171C17.4797 18.8022 15.243 18.7499 14.9883 18.7499C13.6336 18.7499 13.1289 19.5788 13.1078 19.6139C13.0266 19.7596 12.9171 19.8874 12.7857 19.9901C12.6543 20.0927 12.5037 20.168 12.3428 20.2116C12.1819 20.2552 12.0139 20.2661 11.8487 20.2438C11.6834 20.2215 11.5244 20.1663 11.3808 20.0816C11.2372 19.9968 11.112 19.8842 11.0126 19.7504C10.9132 19.6165 10.8416 19.4641 10.802 19.3022C10.7623 19.1403 10.7555 18.972 10.7819 18.8074C10.8082 18.6428 10.8672 18.4851 10.9555 18.3436C11.5523 17.328 12.9258 16.2499 14.9883 16.2499C16.2727 16.2499 17.4695 16.6225 18.3578 17.2983C19.4039 18.0952 19.9797 19.2733 19.9797 20.6171C19.9832 21.1742 19.8764 21.7264 19.6653 22.242C19.4542 22.7576 19.1432 23.2263 18.75 23.621C18.6602 23.7132 18.5656 23.7991 18.4695 23.8827C18.7042 24.0522 18.9243 24.2412 19.1273 24.4475C19.9523 25.2913 20.3883 26.4593 20.3883 27.8264C20.3906 29.2374 19.7961 30.4835 18.7172 31.3358ZM28.75 30.9374C28.75 31.2689 28.6183 31.5868 28.3839 31.8213C28.1495 32.0557 27.8315 32.1874 27.5 32.1874C27.1685 32.1874 26.8505 32.0557 26.6161 31.8213C26.3817 31.5868 26.25 31.2689 26.25 30.9374V20.0225L24.4914 21.3186C24.3593 21.4161 24.2092 21.4866 24.0498 21.5261C23.8905 21.5655 23.7249 21.5732 23.5625 21.5487C23.4001 21.5242 23.2442 21.4679 23.1036 21.3832C22.963 21.2984 22.8404 21.1867 22.743 21.0546C22.6455 20.9224 22.575 20.7724 22.5355 20.613C22.4961 20.4536 22.4884 20.288 22.5129 20.1257C22.5374 19.9633 22.5937 19.8074 22.6785 19.6668C22.7632 19.5261 22.8749 19.4036 23.007 19.3061L26.3992 16.8061C26.614 16.6478 26.8738 16.5624 27.1406 16.5624H27.5C27.8315 16.5624 28.1495 16.6941 28.3839 16.9285C28.6183 17.1629 28.75 17.4809 28.75 17.8124V30.9374Z" fill="white"/>
</svg>
