<svg width="28" height="36" viewBox="0 0 28 36" fill="none" xmlns="http://www.w3.org/2000/svg">
<path d="M0.25 1.4375V34.5625C0.25 34.8111 0.348772 35.0496 0.524587 35.2254C0.700403 35.4012 0.93886 35.5 1.1875 35.5H26.8125C27.0611 35.5 27.2996 35.4012 27.4754 35.2254C27.6512 35.0496 27.75 34.8111 27.75 34.5625V1.4375C27.75 1.18886 27.6512 0.950403 27.4754 0.774587C27.2996 0.598772 27.0611 0.5 26.8125 0.5H1.1875C0.93886 0.5 0.700403 0.598772 0.524587 0.774587C0.348772 0.950403 0.25 1.18886 0.25 1.4375ZM15.25 21.75H6.5V19.25H15.25V21.75ZM21.5 15.5H6.5V13H21.5V15.5ZM21.5 9.25H6.5V6.75H21.5V9.25Z" fill="white"/>
</svg>
