<svg width="40" height="40" viewBox="0 0 40 40" fill="none" xmlns="http://www.w3.org/2000/svg">
<path d="M32.3743 7.6259C30.7522 5.98775 28.8224 4.68624 26.6958 3.79615C24.5692 2.90606 22.2877 2.44494 19.9823 2.43926C17.6769 2.43359 15.3931 2.88348 13.2621 3.76309C11.1312 4.6427 9.19499 5.93469 7.56484 7.56484C5.93469 9.19499 4.6427 11.1312 3.76309 13.2621C2.88348 15.3931 2.43359 17.6769 2.43926 19.9823C2.44494 22.2877 2.90606 24.5692 3.79615 26.6958C4.68624 28.8224 5.98775 30.7522 7.6259 32.3743C9.24801 34.0125 11.1778 35.314 13.3044 36.2041C15.4311 37.0942 17.7126 37.5553 20.018 37.561C22.3233 37.5667 24.6071 37.1168 26.7381 36.2372C28.8691 35.3575 30.8053 34.0656 32.4354 32.4354C34.0656 30.8053 35.3575 28.8691 36.2372 26.7381C37.1168 24.6071 37.5667 22.3233 37.561 20.018C37.5553 17.7126 37.0942 15.4311 36.2041 13.3044C35.314 11.1778 34.0125 9.24801 32.3743 7.6259ZM33.7501 20.0001C33.7531 22.9991 32.7703 25.9159 30.9532 28.3017L11.6986 9.047C14.0843 7.22989 17.0012 6.24719 20.0001 6.25012C27.5821 6.25012 33.7501 12.422 33.7501 20.0001ZM6.25012 20.0001C6.24719 17.0012 7.22989 14.0843 9.047 11.6986L28.3017 30.9532C25.9159 32.7703 22.9991 33.7531 20.0001 33.7501C12.422 33.7501 6.25012 27.5821 6.25012 20.0001Z" fill="white"/>
</svg>
